<?xml version="1.0" encoding="UTF-8"?><svg id="Layer_2" xmlns="http://www.w3.org/2000/svg" viewBox="0 0 33.4 33.5"><defs><style>.cls-1{fill:#fff;}.cls-2{fill:#dd4b4b;}</style></defs><g id="Layer_1-2"><path class="cls-2" d="M33.4,16.75c0,9.25-7.48,16.75-16.7,16.75S0,26,0,16.75,7.48,0,16.7,0s16.7,7.5,16.7,16.75Z"/><path d="M22.02,17.84c-1.24,.8-1.23,1.96-.82,3.39-2.47-1.22-4.62-.61-6.79,.08-1.55,.49-2.43,.03-2.81-1.28-.36-1.22,.26-2.13,1.02-2.93,.69-.73,1.54-1.12,2.56-.74,.35,.13,.69,.24,1.02,.4,1.29,.6,2.61,.89,4.04,.7,.54-.07,1.1,.03,1.64,.05,.04,.11,.09,.21,.13,.32Zm-7.53,.6c-.51,.16-.89,.19-1.14,.38-.33,.26-.79,.66-.79,.99,.01,.59,.62,.64,1.1,.57,.67-.11,1.33-.26,1.98-.45,1.22-.37,2.45-.51,3.71-.22,.16,.03,.33,.04,.5,.04,.07-.46,.14-.87,.19-1.22-.96-.14-1.92-.24-2.85-.44-.74-.16-1.44-.46-2.17-.68-.76-.23-1.33,.13-1.99,.72l1.45,.32Z"/><path d="M23.78,13.93c-.5-.08-.99-.03-1.27-.24-.37-.28-.14-1.18,.43-2.05,.13,.92,.61,.89,1.23,.56,1.06-.57,2.13-.74,3.19,0,.2,.14,.33,.39,.61,.74l-2.15-.32c.51,.68,1.31,1.1,.92,2.07-.24,.59-.79,.74-1.38,.69-.98-.08-1.48-.68-1.57-1.43Z"/><path d="M8.33,12.63l-2.35,.24c.39-.76,.96-1.14,1.64-1.12,.72,.04,1.43,.19,2.1,.46,.63,.23,1.07,.32,1.23-.61,.44,.68,.75,1.3,.46,1.98-.11,.24-.56,.32-1.01,.57-.19,.7-.76,1.31-1.73,1.18-.42-.05-.99-.36-1.17-.72-.4-.83,.28-1.32,.9-1.76l-.07-.22Z"/><path d="M16.14,22.22c1.46-.83,3.33-.88,4.17,0h-4.17Z"/><path class="cls-1" d="M14.49,18.44l-1.44-.32c.66-.59,1.23-.94,1.99-.72,.73,.22,1.43,.52,2.17,.68,.93,.2,1.89,.3,2.85,.44-.06,.35-.12,.76-.2,1.22-.17,0-.33-.01-.5-.04-1.26-.3-2.49-.15-3.71,.22-.65,.19-1.31,.35-1.98,.45-.47,.08-1.09,.02-1.1-.57,0-.33,.45-.73,.79-.99,.25-.19,.63-.22,1.14-.38Z"/></g></svg>