<?xml version="1.0" encoding="UTF-8"?><svg id="Layer_2" xmlns="http://www.w3.org/2000/svg" viewBox="0 0 14.33 17.79"><defs><style>.cls-1{stroke:#1d1d1b;}.cls-1,.cls-2{stroke-miterlimit:10;stroke-width:.75px;}.cls-1,.cls-2,.cls-3{fill:none;}.cls-2{stroke:#bc3e43;stroke-linecap:round;}</style></defs><g id="Layer_1-2"><path class="cls-3" d="M6.98,16.99c-1.61,.13-3.08-.19-4.37-1.23-.16-.1-.3-.21-.44-.33-1.15-1.45-1.87-3.07-1.8-4.98,.02-.62,.25-1.02,.94-1.14,1.31-.22,2.29-.96,2.98-2.13,.72-1.21,1.57-2.33,2.27-3.54,.36-.64,.62-1.33,.77-2.05C7.58,.55,7.91,.01,8.52,0s1.07,.5,1.26,1.51c.22,1.2,.07,2.32-.63,3.36-.8,1.21-.54,1.76,.89,1.9,.63,.07,1.26,0,1.89,.05,1.5,.11,1.99,.75,1.76,2.24-.01,.08-.07,.18-.04,.23,.6,1.17,.12,2.39,.19,3.57,.1,1.65-1.13,3.46-2.71,3.68-1.37,.2-2.76,.3-4.14,.44Z"/><path class="cls-1" d="M6.98,17.39c-1.61,.13-3.08-.19-4.37-1.23-.16-.1-.3-.21-.44-.33-1.15-1.45-1.87-3.07-1.8-4.98,.02-.62,.25-1.02,.94-1.14,1.31-.22,2.29-.96,2.98-2.13,.72-1.21,1.57-2.33,2.27-3.54,.36-.64,.62-1.33,.77-2.05,.23-1.03,.55-1.58,1.16-1.59s1.07,.5,1.26,1.51c.22,1.2,.07,2.32-.63,3.36-.8,1.21-.54,1.76,.89,1.9,.63,.07,1.26,0,1.89,.05,1.5,.11,1.99,.75,1.76,2.24-.01,.08-.07,.18-.04,.23,.6,1.17,.12,2.39,.19,3.57,.1,1.65-1.13,3.46-2.71,3.68-1.37,.2-2.76,.3-4.14,.44Z"/><path class="cls-2" d="M6.98,17.39c-1.61,.13-3.08-.19-4.37-1.23-.16-.1-.3-.21-.44-.33-.65-.82-1.16-1.69-1.47-2.64"/></g></svg>