<?xml version="1.0" encoding="UTF-8"?><svg id="Layer_2" xmlns="http://www.w3.org/2000/svg" viewBox="0 0 33.4 33.5"><defs><style>.cls-1{fill:#fff;}.cls-2{fill:#e56363;}</style></defs><g id="Layer_1-2"><g><path class="cls-2" d="M33.4,16.75c0,9.25-7.48,16.75-16.7,16.75S0,26,0,16.75,7.48,0,16.7,0s16.7,7.5,16.7,16.75Z"/><path class="cls-1" d="M14.12,14.05c0-.18,0-.35-.03-.53-.79-3.2,1.69-5.26,4.8-4.6,2.35,.5,3.92,2.39,4.33,5.1,.44,2.89-.36,5.55-1.56,8.11-.94,2-.98,1.99-3.18,1.8-2.2-.19-4.32-.52-6.31-1.54-1.34-.69-2.49-1.6-3.15-3.01-.71-1.51-.64-3,.31-4.4,1.02-1.48,2.51-1.89,4.15-1.19,.19,.08,.38,.15,.63,.25Z"/></g></g></svg>