<?xml version="1.0" encoding="UTF-8"?><svg id="Layer_2" xmlns="http://www.w3.org/2000/svg" viewBox="0 0 33.4 33.5"><defs><style>.cls-1{fill:#f9f9f9;}.cls-2{fill:#a52729;}</style></defs><g id="Layer_1-2"><g><path class="cls-2" d="M33.4,16.75c0,9.25-7.48,16.75-16.7,16.75S0,26,0,16.75,7.48,0,16.7,0s16.7,7.5,16.7,16.75Z"/><path class="cls-1" d="M16.13,24.09c-1.61,.13-3.08-.19-4.37-1.23-.16-.1-.3-.21-.44-.33-1.15-1.45-1.87-3.07-1.8-4.98,.02-.62,.25-1.02,.94-1.13,1.31-.22,2.28-.96,2.98-2.13,.72-1.21,1.57-2.33,2.27-3.54,.36-.64,.62-1.33,.77-2.05,.23-1.03,.55-1.58,1.16-1.59,.61-.01,1.07,.5,1.26,1.51,.22,1.2,.07,2.32-.63,3.36-.8,1.21-.54,1.76,.89,1.9,.63,.07,1.26,0,1.89,.05,1.5,.11,1.99,.76,1.76,2.24-.01,.08-.07,.18-.04,.23,.6,1.17,.12,2.38,.19,3.57,.1,1.65-1.13,3.46-2.71,3.68-1.37,.2-2.76,.3-4.14,.44Z"/></g></g></svg>