<?xml version="1.0" encoding="UTF-8"?><svg id="Layer_2" xmlns="http://www.w3.org/2000/svg" viewBox="0 0 33.4 33.5"><defs><style>.cls-1{fill:#211206;}.cls-2{fill:#e86286;}</style></defs><g id="Layer_1-2"><g><path class="cls-2" d="M33.4,16.75c0,9.25-7.48,16.75-16.7,16.75S0,26,0,16.75,7.48,0,16.7,0s16.7,7.5,16.7,16.75Z"/><path d="M8.65,17.19c-.79,0-1.36-.49-1.36-1.12,0-.75,.81-1.44,1.69-1.43,.73,0,1.34,.56,1.32,1.18-.02,.74-.79,1.37-1.65,1.36Z"/><path d="M23.76,15.81c0-.66,.58-1.17,1.34-1.17,.87,0,1.63,.65,1.64,1.4,.01,.66-.57,1.16-1.34,1.16-.87,0-1.64-.65-1.64-1.4Z"/><path class="cls-1" d="M20.66,24.31c0,2.41-1.59,4.37-3.57,4.37s-3.56-1.96-3.56-4.37,1.6-4.38,3.56-4.38,3.57,1.96,3.57,4.38Z"/><path d="M27.65,13.44c-.3,.04-.62,.18-.76,.08-.44-.34-.95-.57-1.49-.68-.54-.1-1.1-.08-1.63,.08-.15,.04-.47-.12-.5-.23-.02-.11-.01-.22,.02-.33,.03-.11,.08-.21,.15-.29,.88-.79,3.53-.21,4.04,.85,.04,.09,.07,.2,.18,.51Z"/><path d="M9.29,11.68c.39,.07,.76,.18,1.13,.32,.18,.08,.25,.4,.37,.62-.21,.1-.45,.32-.63,.28-1.08-.24-2.06-.11-2.97,.57-.16,.12-.46,.02-.69,.03,.04-.24,0-.56,.13-.72,.65-.78,1.54-1.03,2.66-1.09Z"/></g></g></svg>