<?xml version="1.0" encoding="UTF-8"?><svg id="Layer_2" xmlns="http://www.w3.org/2000/svg" viewBox="0 0 33.4 33.5"><defs><style>.cls-1{fill:#fff;}.cls-2{fill:#f4cc5b;}.cls-3{fill:#34acd1;}</style></defs><g id="Layer_1-2"><g><path class="cls-2" d="M33.4,16.75c0,9.25-7.48,16.75-16.7,16.75S0,26,0,16.75,7.48,0,16.7,0s16.7,7.5,16.7,16.75Z"/><path d="M13.16,21.22c2.59,0,5.16-.01,7.74,0,2.02,0,2.7,.64,2.31,2.11s-1.67,2.46-3.45,3c-2.94,.91-5.75,.69-8.29-.83-.36-.22-.68-.48-.94-.77-.82-.88-1.3-1.89-.64-2.9,.66-1.01,2.09-.66,3.27-.62Zm-1.28,1.04c1.16,1.35,8.04,1.43,9.25,.11-.89-.48-8.29-.57-9.25-.11Zm4.5,3.86c.74-.14,1.45-.19,2.07-.41,.72-.25,.73-.71,.01-.98-.64-.26-1.35-.39-2.08-.4-.72,0-1.44,.13-2.08,.38-.65,.25-.69,.67,0,.92,.69,.25,1.38,.33,2.08,.49Z"/><path d="M24.44,14.34c1.49,.1,2.4,.4,2.72,1.2,.21,.5,.08,.88-.91,.79-.69-.06-1.42,.02-2.11-.02-.41-.02-1.08-.08-1.17-.24-.17-.32-.21-.83,.06-1.07,.39-.36,1.1-.53,1.4-.65Z"/><path d="M9.12,14.34c.71,.05,1.46,.26,1.68,.98,.21,.66-.28,1.04-1.18,1-.74-.04-1.49-.04-2.23,0-.71,.05-.85-.2-.8-.64,.1-.76,1.14-1.36,2.53-1.34Z"/><path d="M24.47,7.99c1.39,.05,2.85,1.16,3.11,2.26,.05,.23-.1,.52-.16,.78-.22-.13-.55-.19-.65-.39-.51-.93-1.3-1.41-2.28-1.7-.23-.07-.39-.38-.57-.58l.55-.38Z"/><path d="M8.99,8l.46,.4c-.18,.19-.33,.48-.55,.54-1.02,.27-1.81,.79-2.34,1.74-.1,.18-.39,.25-.6,.37-.07-.25-.25-.52-.2-.75,.25-1.17,1.79-2.32,3.22-2.3Z"/><path class="cls-1" d="M11.88,22.31c.95-.65,8.29-.53,9.17,.15-1.2,1.86-8.03,1.74-9.17-.15Z"/><path class="cls-1" d="M16.38,26.33c-.68-.17-1.38-.28-2-.54-.62-.26-.62-.75,0-1.02,.62-.28,1.3-.42,2-.42,.7,0,1.38,.16,1.99,.44,.68,.3,.68,.81-.01,1.09-.58,.23-1.27,.3-1.98,.46Z"/></g><path class="cls-3" d="M5.58,24c-.91,1.43-2.77,1.88-4.13,1.01s-1.72-2.75-.81-4.17,6.13-4.13,6.13-4.13c0,0-.28,5.87-1.19,7.3Z"/><path class="cls-3" d="M32.83,21.62c.93,1.53,.68,3.39-.55,4.14s-3,.11-3.93-1.42-1.48-7.5-1.48-7.5c0,0,5.04,3.25,5.96,4.78Z"/></g></svg>