<?xml version="1.0" encoding="UTF-8"?><svg id="Layer_2" xmlns="http://www.w3.org/2000/svg" viewBox="0 0 33.4 33.5"><defs><style>.cls-1{fill:#fff;}.cls-2{fill:#f2b15c;}.cls-3{fill:#34acd1;}</style></defs><g id="Layer_1-2"><g><path class="cls-2" d="M33.4,16.75c0,9.25-7.48,16.75-16.7,16.75S0,26,0,16.75,7.48,0,16.7,0s16.7,7.5,16.7,16.75Z"/><path d="M19.44,29.5h-5.5c-1.73,0-2.31-.87-1.67-2.53,.63-1.66,2.73-2.8,4.82-2.57,1.12,.12,2.19,.46,2.96,1.32,.48,.52,.83,1.14,1.05,1.82,.42,1.45-.17,2.11-1.66,1.96Zm-2.85-.79v.08c.6,0,1.2,.03,1.8-.02,.23-.02,.6-.17,.63-.32,.02-.14,0-.27-.04-.41-.04-.13-.11-.25-.2-.35-.89-.92-3.62-.97-4.57-.09-.17,.16-.37,.51-.3,.66,.07,.12,.16,.21,.28,.29,.11,.07,.24,.12,.37,.14,.67,.05,1.35,.02,2.03,.02Z"/><path d="M25.16,21.97c-.88-.01-1.61-.67-1.59-1.43,.02-.62,.59-1.11,1.31-1.12,.89-.01,1.71,.7,1.68,1.45-.03,.65-.61,1.11-1.4,1.1Z"/><path d="M8.48,21.96c-.8,0-1.35-.44-1.37-1.11-.02-.74,.74-1.4,1.62-1.42,.74-.01,1.35,.5,1.37,1.14,.02,.75-.72,1.38-1.62,1.39Z"/><path d="M6.96,18.81l-.5-.48c.2-.17,.38-.45,.61-.5,.47-.1,.93-.3,1.32-.6,.39-.29,.72-.66,.96-1.09,.11-.19,.43-.26,.66-.38,.05,.26,.2,.55,.15,.79-.27,1.13-1.8,2.27-3.19,2.26Z"/><path d="M26.69,19.05c-1.35-.09-2.74-1.12-3.03-2.17-.07-.27,.1-.61,.16-.91,.21,.15,.5,.26,.63,.46,.51,.84,1.23,1.34,2.15,1.62,.26,.08,.46,.37,.68,.57-.24,.17-.49,.35-.6,.43Z"/><path class="cls-1" d="M16.6,28.72c-.68,0-1.36,.04-2.04-.02-.13-.02-.26-.06-.37-.14s-.21-.17-.28-.29c-.07-.15,.13-.5,.3-.66,.95-.88,3.68-.83,4.57,.09,.09,.1,.16,.22,.2,.35s.05,.27,.04,.4c-.03,.15-.4,.31-.63,.32-.6,.04-1.2,.02-1.8,.02v-.08Z"/><path class="cls-3" d="M8.8,28.7c0,1.1-.89,1.99-1.99,1.99s-1.99-.9-1.99-1.99,1.99-4.4,1.99-4.4c0,0,1.99,3.3,1.99,4.4Z"/></g><path class="cls-3" d="M28.82,28.58c0,1.1-.89,1.99-1.99,1.99s-1.99-.9-1.99-1.99,1.99-4.4,1.99-4.4c0,0,1.99,3.3,1.99,4.4Z"/></g></svg>